<svg width="37" height="50" viewBox="0 0 37 50" fill="none" xmlns="http://www.w3.org/2000/svg">
<path fill-rule="evenodd" clip-rule="evenodd" d="M18.2212 13.2969L21.9501 21.5119C23.7276 25.3587 24.0111 27.045 24.0013 31.3864C23.9991 32.3544 23.9917 36.4937 23.7172 37.0703C22.8118 37.38 21.0819 37.2012 20.6885 38.0734L31.5317 38.0721C31.8213 38.0426 31.8464 37.9971 31.9204 37.7312C31.3213 37.2586 29.5589 37.54 28.884 37.0353C28.7579 36.845 28.8374 29.1589 28.8374 28.2761C28.8374 26.0932 28.5956 26.43 29.4769 24.5322C31.051 21.1424 34.6512 13.8085 36.4317 10.523L33.8679 10.5064C33.2748 11.9926 28.4092 21.621 27.8552 22.5685L27.0787 20.7943C26.6319 19.8308 26.1436 18.9114 25.7228 17.9215L21.8309 9.06251C21.3817 8.04309 20.9429 7.10267 20.5174 6.08386C20.1903 5.30082 18.1593 0.74768 17.9916 0.0974328C16.9905 0.0974328 13.4481 -0.117747 12.4238 0.0914511C12.4573 0.217869 17.7173 12.1828 18.2212 13.2969Z" fill="white"/>
<path fill-rule="evenodd" clip-rule="evenodd" d="M19.3012 49.8611C20.7501 49.8611 22.8243 50.0185 23.922 49.9982C21.346 42.6162 9.43002 10.4343 9.29106 10.3106C9.22788 10.3887 9.27725 10.3055 9.22422 10.4351L0.0507812 35.3641C1.29202 35.4205 1.94042 35.4167 1.94042 35.4167C3.42369 31.2961 6.6552 22.7997 8.00687 19.0678C11.6389 28.8702 15.8081 40.2112 19.3012 49.8611Z" fill="white"/>
</svg>
