<svg width="24" height="24" viewBox="0 0 24 24" fill="none" xmlns="http://www.w3.org/2000/svg">
<path fill-rule="evenodd" clip-rule="evenodd" d="M20.4046 3.48756C18.1597 1.23972 15.1739 0.00117083 11.9926 0C5.43722 0 0.102096 5.33456 0.0998012 11.8917C0.0986772 13.9878 0.64667 16.0338 1.68735 17.8369L0 24L6.30452 22.3463C8.04142 23.2941 9.9973 23.793 11.9875 23.7936H11.9926C18.5468 23.7936 23.8825 18.4585 23.8848 11.9013C23.8859 8.72349 22.6502 5.73601 20.4046 3.48812V3.48756ZM11.9926 21.7852H11.9886C10.2151 21.7847 8.47537 21.3079 6.95742 20.4075L6.59648 20.1932L2.85517 21.1745L3.85365 17.5267L3.61869 17.1526C2.62935 15.5788 2.10646 13.7597 2.10758 11.8923C2.10987 6.44249 6.54402 2.00834 11.9966 2.00834C14.6367 2.00951 17.1185 3.03881 18.9847 4.90744C20.8512 6.77552 21.8781 9.2595 21.877 11.9002C21.8747 17.3505 17.4406 21.7847 11.9926 21.7847V21.7852ZM17.4143 14.3825C17.1172 14.2336 15.6564 13.5151 15.3838 13.4159C15.1112 13.3166 14.9134 13.2671 14.7154 13.5647C14.5176 13.8624 13.9479 14.5319 13.7746 14.7297C13.6012 14.9282 13.4279 14.9527 13.1308 14.8038C12.8337 14.655 11.8762 14.3414 10.7409 13.3292C9.85765 12.5411 9.26114 11.5684 9.08785 11.2706C8.91448 10.973 9.06959 10.8122 9.21781 10.6645C9.35124 10.5311 9.51492 10.3173 9.66376 10.1439C9.81259 9.97052 9.86163 9.84627 9.96082 9.64835C10.0601 9.44987 10.0105 9.27664 9.93637 9.12771C9.86219 8.97892 9.26802 7.51623 9.01995 6.9215C8.77871 6.34217 8.53358 6.42085 8.35168 6.41116C8.17826 6.40259 7.98044 6.4009 7.78201 6.4009C7.58358 6.4009 7.26193 6.47499 6.98936 6.77271C6.71679 7.07029 5.94924 7.78941 5.94924 9.25144C5.94924 10.7136 7.0139 12.1272 7.16273 12.3257C7.31152 12.5241 9.25828 15.5252 12.2389 16.8128C12.9477 17.119 13.5014 17.302 13.9331 17.4389C14.6448 17.6653 15.2925 17.6334 15.8046 17.5569C16.3754 17.4714 17.5627 16.8379 17.8101 16.1439C18.0575 15.4499 18.0575 14.8546 17.9835 14.7308C17.9094 14.6071 17.7109 14.5324 17.4138 14.3836L17.4143 14.3825Z" fill="#D7D7D7"/>
</svg>
